<svg xmlns="http://www.w3.org/2000/svg" viewBox="0 0 71 48"><defs><style>.a{fill:none;stroke:#2f7eb2;stroke-linecap:round;stroke-linejoin:round;}</style></defs><title>Asset 3</title><path class="a" d="M42.67,47.5C41,22,51.28,8.78,65.5,9.53"/><line class="a" x1="61.5" y1="5.5" x2="66.5" y2="9.5"/><line class="a" x1="61.5" y1="13.5" x2="66.5" y2="9.5"/><line class="a" x1="34.5" y1="47.5" x2="34.5" y2="1.5"/><line class="a" x1="34.5" y1="0.5" x2="30.5" y2="5.5"/><line class="a" x1="34.5" y1="0.5" x2="38.51" y2="5.5"/><path class="a" d="M3.5,9.5c12.57,0,25.89,12.5,23.78,38"/><line class="a" x1="2.5" y1="9.5" x2="7.5" y2="5.5"/><line class="a" x1="2.5" y1="9.5" x2="7.5" y2="13.5"/><path class="a" d="M51.6,47.5c-.94-13.39,5.65-23.48,18.9-23"/><line class="a" x1="65.5" y1="20.5" x2="70.5" y2="24.39"/><line class="a" x1="65.5" y1="27.5" x2="70.5" y2="24.5"/><path class="a" d="M1.5,24.52c12-.5,17.8,9.59,16.91,23"/><line class="a" x1="0.5" y1="24.5" x2="5.5" y2="20.5"/><line class="a" x1="0.5" y1="24.5" x2="5.5" y2="28.5"/></svg>