<svg xmlns="http://www.w3.org/2000/svg" viewBox="0 0 70 48"><defs><style>.a{fill:#2f7eb2;}</style></defs><title>Asset 2</title><rect class="a" x="27" width="1" height="48"/><rect class="a" x="44" y="29" width="1" height="18"/><rect class="a" x="11" y="31" width="1" height="17"/><rect class="a" width="1" height="48"/><rect class="a" x="1.5" y="7.5" width="1" height="4" transform="translate(11.5 7.5) rotate(90)"/><rect class="a" x="1.5" y="17.5" width="1" height="4" transform="translate(21.5 17.5) rotate(90)"/><rect class="a" x="1.5" y="26.5" width="1" height="4" transform="translate(30.5 26.5) rotate(90)"/><rect class="a" x="1.5" y="36.5" width="1" height="4" transform="translate(40.5 36.5) rotate(90)"/><rect class="a" x="1.5" y="45.5" width="1" height="4" transform="translate(49.5 45.5) rotate(90)"/><rect class="a" x="34.5" y="12.5" width="1" height="70" transform="translate(82.5 12.5) rotate(90)"/><rect class="a" x="36" y="17.38" width="1" height="30"/><rect class="a" x="52" y="38.38" width="1" height="9"/></svg>