<svg xmlns="http://www.w3.org/2000/svg" viewBox="0 0 71 48"><defs><style>.a{fill:none;stroke:#2f7eb2;stroke-linecap:round;stroke-linejoin:round;}</style></defs><title>Asset 1</title><path class="a" d="M45.65,46.5c-1.45-23.92,7.95-38,21.85-38"/><line class="a" x1="45.5" y1="47.5" x2="49.5" y2="42.5"/><line class="a" x1="45.5" y1="47.5" x2="41.5" y2="42.5"/><path class="a" d="M56.66,46.5c-.94-13.4,1.93-22,13.84-22"/><line class="a" x1="60.5" y1="42.5" x2="56.5" y2="47.5"/><line class="a" x1="52.5" y1="42.5" x2="56.5" y2="47.5"/><line class="a" x1="34.5" y1="46.5" x2="34.5" y2="0.5"/><line class="a" x1="34.5" y1="47.5" x2="38.5" y2="42.5"/><line class="a" x1="34.5" y1="47.5" x2="30.5" y2="42.5"/><path class="a" d="M2.5,8.5c12.09,0,23.33,14.08,21.87,38"/><line class="a" x1="20.5" y1="42.5" x2="24.5" y2="47.5"/><line class="a" x1="24.5" y1="47.5" x2="28.5" y2="42.5"/><path class="a" d="M.5,25.51c11.82.49,13.7,7.59,12.81,21"/><line class="a" x1="9.5" y1="42.5" x2="13.5" y2="47.5"/><line class="a" x1="17.5" y1="42.5" x2="13.5" y2="47.5"/></svg>